<?xml version="1.0" standalone="no"?>
<!DOCTYPE svg PUBLIC "-//W3C//DTD SVG 20010904//EN"
 "http://www.w3.org/TR/2001/REC-SVG-20010904/DTD/svg10.dtd">
<svg version="1.0" xmlns="http://www.w3.org/2000/svg"
 width="300.000000pt" height="300.000000pt" viewBox="0 0 300.000000 300.000000"
 preserveAspectRatio="xMidYMid meet">
<metadata>
Created by potrace 1.14, written by Peter Selinger 2001-2017
</metadata>
<g transform="translate(0.000000,300.000000) scale(0.100000,-0.100000)"
fill="#000000" stroke="none">
<path d="M1858 2894 c-5 -4 -8 -15 -8 -25 0 -9 -6 -20 -12 -22 -10 -4 -10 -8
1 -15 10 -7 12 -26 8 -75 -5 -62 -22 -115 -34 -103 -3 3 -20 -1 -37 -8 -24
-10 -36 -11 -47 -2 -17 13 -24 71 -10 81 14 8 14 45 1 45 -5 0 -10 -7 -10 -16
0 -26 -23 -10 -45 29 -24 45 -33 47 -31 8 0 -16 2 -28 5 -26 12 12 47 -55 57
-110 l5 -29 -23 19 c-12 11 -28 26 -34 34 -20 25 -33 4 -21 -34 6 -19 13 -33
15 -30 3 3 13 -2 23 -11 13 -12 15 -22 9 -37 -11 -30 -22 -60 -26 -72 -1 -5
-23 -59 -48 -119 -25 -59 -46 -112 -46 -116 0 -5 -5 -21 -12 -37 -6 -15 -17
-46 -23 -68 -29 -95 -100 -291 -108 -296 -5 -3 -7 -8 -6 -10 3 -4 -55 -182
-74 -229 -6 -14 -11 -27 -12 -30 -22 -60 -32 -73 -64 -90 -79 -43 -285 -184
-328 -225 -33 -31 -68 -109 -57 -127 3 -5 8 -24 10 -41 8 -51 25 -141 39 -205
3 -12 7 -32 10 -45 28 -134 45 -207 53 -227 3 -8 4 -18 4 -23 -1 -4 3 -28 9
-55 6 -26 12 -55 14 -65 6 -25 15 -37 29 -37 9 0 12 31 10 133 -2 73 0 138 4
144 7 11 32 16 64 14 14 -1 17 -15 18 -99 1 -105 7 -183 15 -191 9 -8 30 19
32 42 3 35 14 99 22 132 5 17 8 50 7 73 -1 46 -4 45 104 57 95 10 116 13 155
20 l41 6 17 -48 c9 -26 19 -59 22 -72 2 -13 9 -38 15 -56 6 -18 12 -41 14 -51
9 -44 26 -74 43 -74 10 0 14 4 8 8 -5 4 -11 23 -12 42 -2 19 -4 58 -6 86 -2
28 -6 55 -10 60 -3 6 -2 15 2 22 4 7 6 30 4 51 -3 47 4 52 105 58 l72 4 1 -28
c0 -15 2 -84 2 -152 1 -84 6 -126 14 -128 12 -4 19 21 28 96 6 48 12 87 24
146 5 22 9 47 10 55 3 36 10 87 16 110 3 14 8 39 10 55 6 41 13 85 19 115 5
25 15 99 21 155 2 17 4 30 5 30 14 0 18 350 6 535 -4 63 -9 152 -11 197 -1 45
-6 86 -9 91 -4 6 -2 13 3 17 7 4 7 15 1 30 -6 16 -6 25 1 25 6 0 6 7 1 18 -5
9 -8 75 -8 147 1 123 2 130 23 140 70 35 159 122 171 168 11 41 1 45 -95 40
-63 -4 -73 -2 -73 13 0 12 -6 15 -22 11 -22 -6 -22 -5 -4 8 10 8 22 12 26 10
4 -2 7 2 7 9 0 21 -33 7 -47 -19 -19 -36 -37 -38 -38 -4 0 16 4 29 9 29 5 0 9
6 9 14 0 8 7 16 15 20 8 3 15 13 15 23 0 13 -3 14 -12 5 -22 -22 -27 -13 -30
49 -2 33 -6 57 -10 53z m-215 -232 c14 -15 14 -19 3 -19 -8 0 -17 9 -19 19 -3
10 -4 18 -3 18 2 0 10 -8 19 -18z"/>
<path d="M844 1112 c-6 -4 -14 -18 -18 -32 -6 -20 -5 -22 4 -10 15 20 31 50
28 50 -2 0 -8 -4 -14 -8z"/>
<path d="M813 1028 c-2 -18 0 -20 7 -8 12 18 13 30 2 30 -4 0 -9 -10 -9 -22z"/>
<path d="M780 919 c0 -5 5 -7 10 -4 6 3 10 8 10 11 0 2 -4 4 -10 4 -5 0 -10
-5 -10 -11z"/>
<path d="M712 793 c-31 -33 -49 -60 -44 -65 12 -12 58 10 76 36 13 20 32 86
24 86 -2 0 -27 -25 -56 -57z"/>
<path d="M1559 314 c-1 -5 0 -27 1 -49 2 -22 3 -52 3 -67 0 -16 5 -28 9 -28 5
0 8 6 7 13 -4 33 2 47 21 47 15 0 20 -7 20 -24 0 -14 4 -27 9 -30 7 -5 8 25 2
122 -2 37 -16 24 -16 -15 0 -31 -4 -38 -19 -38 -14 0 -20 9 -22 34 -4 33 -13
54 -15 35z"/>
<path d="M1734 295 c-14 -21 -15 -35 -8 -72 5 -26 16 -49 24 -51 12 -4 13 -2
3 9 -11 14 -18 60 -14 103 1 14 6 17 26 12 30 -8 33 -1 5 14 -16 9 -22 6 -36
-15z"/>
<path d="M1940 301 c-23 -44 -5 -141 27 -141 12 0 43 33 43 46 0 5 -9 -2 -19
-16 -15 -19 -22 -22 -33 -12 -21 17 -23 106 -3 126 9 9 12 16 6 16 -6 0 -15
-9 -21 -19z"/>
<path d="M2126 293 c-9 -46 -16 -131 -8 -98 4 17 11 29 15 28 4 -2 11 -3 16
-3 5 0 12 -10 14 -22 3 -17 5 -14 6 10 1 26 -3 32 -19 32 -15 0 -20 7 -20 25
0 14 5 25 10 25 6 0 10 -9 10 -20 0 -11 4 -20 9 -20 6 0 6 12 0 32 -5 18 -9
34 -9 35 0 2 -4 3 -9 3 -5 0 -12 -12 -15 -27z"/>
<path d="M1060 306 c0 -3 9 -23 21 -45 14 -28 19 -50 15 -78 -6 -35 -5 -35 13
13 10 28 24 61 30 73 7 12 8 21 2 21 -5 0 -13 -12 -19 -27 l-9 -28 -16 32
c-15 29 -37 52 -37 39z"/>
<path d="M1285 253 c1 -32 -2 -68 -6 -80 -6 -17 -5 -23 5 -23 10 0 14 20 15
80 1 44 -2 80 -7 80 -5 0 -8 -26 -7 -57z"/>
<path d="M1331 283 c0 -25 1 -26 9 -8 12 27 12 35 0 35 -5 0 -10 -12 -9 -27z"/>
<path d="M1681 246 c1 -35 5 -69 9 -76 4 -6 7 23 6 64 -1 42 -4 76 -9 76 -4 0
-7 -29 -6 -64z"/>
<path d="M1824 288 c3 -13 5 -47 5 -75 1 -29 5 -53 11 -53 5 0 7 6 4 14 -7 19
13 56 31 56 10 0 15 -12 16 -37 l2 -38 6 40 c7 44 2 119 -7 111 -3 -3 -5 -18
-6 -32 -1 -35 -43 -55 -43 -21 -1 46 -3 57 -13 57 -5 0 -8 -10 -6 -22z"/>
<path d="M2196 293 c-4 -10 3 -26 19 -43 41 -43 31 -68 -25 -60 -11 1 -12 -1
-4 -10 13 -13 60 -4 67 13 7 18 -10 57 -28 63 -17 7 -21 34 -5 34 6 0 10 5 10
10 0 17 -27 11 -34 -7z"/>
<path d="M2280 290 c0 -10 12 -30 26 -44 33 -30 26 -56 -13 -56 -20 0 -24 -3
-14 -9 9 -6 23 -5 38 2 31 14 30 50 -4 75 -15 11 -23 24 -19 31 4 6 12 9 17 6
5 -4 9 -1 9 4 0 6 -9 11 -20 11 -13 0 -20 -7 -20 -20z"/>
<path d="M798 289 c-14 -7 -18 -23 -18 -62 0 -54 13 -88 27 -73 4 5 2 11 -4
13 -13 5 -18 69 -7 97 10 25 32 19 39 -12 7 -35 3 -92 -7 -92 -4 0 -8 -5 -8
-11 0 -8 5 -8 15 1 18 15 20 88 3 125 -12 28 -15 29 -40 14z"/>
<path d="M884 291 c-5 -3 -8 -13 -8 -21 1 -8 2 -37 3 -63 1 -30 5 -46 11 -42
6 4 8 11 5 16 -12 18 7 8 25 -13 10 -13 22 -20 26 -15 4 4 1 13 -8 20 -39 32
-65 107 -37 107 6 0 9 -9 6 -20 -3 -11 -2 -20 3 -20 4 0 10 11 12 24 5 25 -19
41 -38 27z"/>
<path d="M979 293 c-4 -28 0 -125 5 -130 3 -4 6 5 6 18 l1 24 20 -28 c11 -15
25 -25 29 -22 5 3 -4 19 -19 35 -17 19 -28 43 -29 65 -3 40 5 46 17 13 5 -13
10 -17 14 -11 4 6 0 19 -9 27 -16 17 -33 21 -35 9z"/>
<path d="M1430 274 l-14 -26 -18 22 c-20 24 -20 24 -20 -20 0 -70 2 -90 10
-90 5 0 7 21 5 48 -4 38 -3 45 8 35 18 -18 26 -16 32 9 9 33 16 19 18 -39 1
-29 6 -50 9 -48 10 6 3 116 -8 127 -5 5 -14 -3 -22 -18z"/>
<path d="M2039 295 c-5 -8 -6 -69 0 -112 0 -8 14 -12 34 -12 29 2 30 2 5 6
-26 4 -27 7 -30 66 -2 34 -6 58 -9 52z"/>
<path d="M706 274 c-4 -9 -3 -20 0 -23 4 -3 9 0 11 7 3 6 11 12 19 12 9 0 12
5 9 10 -10 16 -32 12 -39 -6z"/>
<path d="M736 215 c22 -22 24 -28 13 -41 -7 -9 -23 -14 -36 -11 -12 2 -20 0
-17 -4 6 -10 35 -12 58 -3 21 8 20 54 -1 70 -31 23 -43 15 -17 -11z"/>
<path d="M1783 218 c2 -7 1 -20 -4 -29 -5 -11 -3 -16 7 -16 7 0 14 5 15 11 0
6 2 19 4 29 2 10 -3 17 -12 17 -8 0 -13 -6 -10 -12z"/>
<path d="M1147 151 c-4 -17 -3 -21 5 -13 5 5 8 16 6 23 -3 8 -7 3 -11 -10z"/>
</g>
</svg>
